{
    "asset" : {
        "copyright" : "bt",
        "generator" : "Khronos glTF Blender I/O v1.5.17",
        "version" : "2.0"
    },
    "scene" : 0,
    "scenes" : [
        {
            "name" : "Scene",
            "nodes" : [
                0
            ]
        }
    ],
    "nodes" : [
        {
            "mesh" : 0,
            "name" : "Cube"
        }
    ],
    "materials" : [
        {
            "doubleSided" : true,
            "name" : "mainMaterial",
            "pbrMetallicRoughness" : {
                "baseColorTexture" : {
                    "index" : 0
                },
                "metallicFactor" : 0,
                "roughnessFactor" : 0.3590909242630005
            }
        },
        {
            "doubleSided" : true,
            "name" : "colorPart",
            "pbrMetallicRoughness" : {
                "baseColorTexture" : {
                    "index" : 1
                },
                "metallicFactor" : 0,
                "roughnessFactor" : 0.5
            }
        }
    ],
    "meshes" : [
        {
            "name" : "Cube",
            "primitives" : [
                {
                    "attributes" : {
                        "POSITION" : 0,
                        "NORMAL" : 1,
                        "TEXCOORD_0" : 2
                    },
                    "indices" : 3,
                    "material" : 0
                },
                {
                    "attributes" : {
                        "POSITION" : 4,
                        "NORMAL" : 5,
                        "TEXCOORD_0" : 6
                    },
                    "indices" : 7,
                    "material" : 1
                }
            ]
        }
    ],
    "textures" : [
        {
            "sampler" : 0,
            "source" : 0
        },
        {
            "sampler" : 0,
            "source" : 0
        }
    ],
    "images" : [
        {
            "mimeType" : "image/png",
            "name" : "palette",
            "uri" : "palette.png"
        }
    ],
    "accessors" : [
        {
            "bufferView" : 0,
            "componentType" : 5126,
            "count" : 15224,
            "max" : [
                0.17066380381584167,
                0.34259307384490967,
                0.403032124042511
            ],
            "min" : [
                -0.17066380381584167,
                0.05216476321220398,
                -0.26109448075294495
            ],
            "type" : "VEC3"
        },
        {
            "bufferView" : 1,
            "componentType" : 5126,
            "count" : 15224,
            "type" : "VEC3"
        },
        {
            "bufferView" : 2,
            "componentType" : 5126,
            "count" : 15224,
            "type" : "VEC2"
        },
        {
            "bufferView" : 3,
            "componentType" : 5123,
            "count" : 23472,
            "type" : "SCALAR"
        },
        {
            "bufferView" : 4,
            "componentType" : 5126,
            "count" : 4336,
            "max" : [
                0.1719599962234497,
                0.26988211274147034,
                0.40349024534225464
            ],
            "min" : [
                -0.1719599962234497,
                0.046955954283475876,
                -0.21213042736053467
            ],
            "type" : "VEC3"
        },
        {
            "bufferView" : 5,
            "componentType" : 5126,
            "count" : 4336,
            "type" : "VEC3"
        },
        {
            "bufferView" : 6,
            "componentType" : 5126,
            "count" : 4336,
            "type" : "VEC2"
        },
        {
            "bufferView" : 7,
            "componentType" : 5123,
            "count" : 6504,
            "type" : "SCALAR"
        }
    ],
    "bufferViews" : [
        {
            "buffer" : 0,
            "byteLength" : 182688,
            "byteOffset" : 0
        },
        {
            "buffer" : 0,
            "byteLength" : 182688,
            "byteOffset" : 182688
        },
        {
            "buffer" : 0,
            "byteLength" : 121792,
            "byteOffset" : 365376
        },
        {
            "buffer" : 0,
            "byteLength" : 46944,
            "byteOffset" : 487168
        },
        {
            "buffer" : 0,
            "byteLength" : 52032,
            "byteOffset" : 534112
        },
        {
            "buffer" : 0,
            "byteLength" : 52032,
            "byteOffset" : 586144
        },
        {
            "buffer" : 0,
            "byteLength" : 34688,
            "byteOffset" : 638176
        },
        {
            "buffer" : 0,
            "byteLength" : 13008,
            "byteOffset" : 672864
        }
    ],
    "samplers" : [
        {
            "magFilter" : 9728,
            "minFilter" : 9984
        }
    ],
    "buffers" : [
        {
            "byteLength" : 685872,
            "uri" : "mainShip.bin"
        }
    ]
}
