{
    "asset" : {
        "copyright" : "bt",
        "generator" : "Khronos glTF Blender I/O v1.5.17",
        "version" : "2.0"
    },
    "scene" : 0,
    "scenes" : [
        {
            "name" : "Scene",
            "nodes" : [
                0
            ]
        }
    ],
    "nodes" : [
        {
            "mesh" : 0,
            "name" : "Cube"
        }
    ],
    "materials" : [
        {
            "doubleSided" : true,
            "name" : "baseMaterial",
            "pbrMetallicRoughness" : {
                "baseColorTexture" : {
                    "index" : 0
                },
                "metallicFactor" : 0,
                "roughnessFactor" : 0.4000000059604645
            }
        },
        {
            "doubleSided" : true,
            "name" : "colorPart",
            "pbrMetallicRoughness" : {
                "baseColorTexture" : {
                    "index" : 1
                },
                "metallicFactor" : 0,
                "roughnessFactor" : 0.5
            }
        }
    ],
    "meshes" : [
        {
            "name" : "Cube",
            "primitives" : [
                {
                    "attributes" : {
                        "POSITION" : 0,
                        "NORMAL" : 1,
                        "TEXCOORD_0" : 2
                    },
                    "indices" : 3,
                    "material" : 0
                },
                {
                    "attributes" : {
                        "POSITION" : 4,
                        "NORMAL" : 5,
                        "TEXCOORD_0" : 6
                    },
                    "indices" : 7,
                    "material" : 1
                }
            ]
        }
    ],
    "textures" : [
        {
            "sampler" : 0,
            "source" : 0
        },
        {
            "sampler" : 0,
            "source" : 0
        }
    ],
    "images" : [
        {
            "mimeType" : "image/png",
            "name" : "palette",
            "uri" : "palette.png"
        }
    ],
    "accessors" : [
        {
            "bufferView" : 0,
            "componentType" : 5126,
            "count" : 5440,
            "max" : [
                0.2360411435365677,
                0.2331763207912445,
                0.24272435903549194
            ],
            "min" : [
                -0.2360413372516632,
                0.056185171008110046,
                -0.18366388976573944
            ],
            "type" : "VEC3"
        },
        {
            "bufferView" : 1,
            "componentType" : 5126,
            "count" : 5440,
            "type" : "VEC3"
        },
        {
            "bufferView" : 2,
            "componentType" : 5126,
            "count" : 5440,
            "type" : "VEC2"
        },
        {
            "bufferView" : 3,
            "componentType" : 5123,
            "count" : 8160,
            "type" : "SCALAR"
        },
        {
            "bufferView" : 4,
            "componentType" : 5126,
            "count" : 3372,
            "max" : [
                0.24354980885982513,
                0.23509959876537323,
                0.29618287086486816
            ],
            "min" : [
                -0.24355000257492065,
                0.05736929923295975,
                -0.20711028575897217
            ],
            "type" : "VEC3"
        },
        {
            "bufferView" : 5,
            "componentType" : 5126,
            "count" : 3372,
            "type" : "VEC3"
        },
        {
            "bufferView" : 6,
            "componentType" : 5126,
            "count" : 3372,
            "type" : "VEC2"
        },
        {
            "bufferView" : 7,
            "componentType" : 5123,
            "count" : 5088,
            "type" : "SCALAR"
        }
    ],
    "bufferViews" : [
        {
            "buffer" : 0,
            "byteLength" : 65280,
            "byteOffset" : 0
        },
        {
            "buffer" : 0,
            "byteLength" : 65280,
            "byteOffset" : 65280
        },
        {
            "buffer" : 0,
            "byteLength" : 43520,
            "byteOffset" : 130560
        },
        {
            "buffer" : 0,
            "byteLength" : 16320,
            "byteOffset" : 174080
        },
        {
            "buffer" : 0,
            "byteLength" : 40464,
            "byteOffset" : 190400
        },
        {
            "buffer" : 0,
            "byteLength" : 40464,
            "byteOffset" : 230864
        },
        {
            "buffer" : 0,
            "byteLength" : 26976,
            "byteOffset" : 271328
        },
        {
            "buffer" : 0,
            "byteLength" : 10176,
            "byteOffset" : 298304
        }
    ],
    "samplers" : [
        {
            "magFilter" : 9728,
            "minFilter" : 9984
        }
    ],
    "buffers" : [
        {
            "byteLength" : 308480,
            "uri" : "shipL2.bin"
        }
    ]
}
