{
    "asset" : {
        "copyright" : "bt",
        "generator" : "Khronos glTF Blender I/O v1.5.17",
        "version" : "2.0"
    },
    "scene" : 0,
    "scenes" : [
        {
            "name" : "Scene",
            "nodes" : [
                0
            ]
        }
    ],
    "nodes" : [
        {
            "mesh" : 0,
            "name" : "Cube"
        }
    ],
    "materials" : [
        {
            "doubleSided" : true,
            "name" : "mainMaterial",
            "pbrMetallicRoughness" : {
                "baseColorTexture" : {
                    "index" : 0
                },
                "metallicFactor" : 0,
                "roughnessFactor" : 0.4000000059604645
            }
        },
        {
            "doubleSided" : true,
            "name" : "colorPart",
            "pbrMetallicRoughness" : {
                "baseColorTexture" : {
                    "index" : 1
                },
                "metallicFactor" : 0,
                "roughnessFactor" : 0.5
            }
        }
    ],
    "meshes" : [
        {
            "name" : "Cube",
            "primitives" : [
                {
                    "attributes" : {
                        "POSITION" : 0,
                        "NORMAL" : 1,
                        "TEXCOORD_0" : 2
                    },
                    "indices" : 3,
                    "material" : 0
                },
                {
                    "attributes" : {
                        "POSITION" : 4,
                        "NORMAL" : 5,
                        "TEXCOORD_0" : 6
                    },
                    "indices" : 7,
                    "material" : 1
                }
            ]
        }
    ],
    "textures" : [
        {
            "sampler" : 0,
            "source" : 0
        },
        {
            "sampler" : 0,
            "source" : 0
        }
    ],
    "images" : [
        {
            "mimeType" : "image/png",
            "name" : "palette",
            "uri" : "palette.png"
        }
    ],
    "accessors" : [
        {
            "bufferView" : 0,
            "componentType" : 5126,
            "count" : 9424,
            "max" : [
                0.19327569007873535,
                0.2052024006843567,
                0.3745829164981842
            ],
            "min" : [
                -0.19327570497989655,
                0.04970156401395798,
                -0.26255494356155396
            ],
            "type" : "VEC3"
        },
        {
            "bufferView" : 1,
            "componentType" : 5126,
            "count" : 9424,
            "type" : "VEC3"
        },
        {
            "bufferView" : 2,
            "componentType" : 5126,
            "count" : 9424,
            "type" : "VEC2"
        },
        {
            "bufferView" : 3,
            "componentType" : 5123,
            "count" : 14136,
            "type" : "SCALAR"
        },
        {
            "bufferView" : 4,
            "componentType" : 5126,
            "count" : 1424,
            "max" : [
                0.18942300975322723,
                0.19814851880073547,
                0.19759255647659302
            ],
            "min" : [
                -0.18942299485206604,
                0.05544143170118332,
                -0.24044981598854065
            ],
            "type" : "VEC3"
        },
        {
            "bufferView" : 5,
            "componentType" : 5126,
            "count" : 1424,
            "type" : "VEC3"
        },
        {
            "bufferView" : 6,
            "componentType" : 5126,
            "count" : 1424,
            "type" : "VEC2"
        },
        {
            "bufferView" : 7,
            "componentType" : 5123,
            "count" : 2136,
            "type" : "SCALAR"
        }
    ],
    "bufferViews" : [
        {
            "buffer" : 0,
            "byteLength" : 113088,
            "byteOffset" : 0
        },
        {
            "buffer" : 0,
            "byteLength" : 113088,
            "byteOffset" : 113088
        },
        {
            "buffer" : 0,
            "byteLength" : 75392,
            "byteOffset" : 226176
        },
        {
            "buffer" : 0,
            "byteLength" : 28272,
            "byteOffset" : 301568
        },
        {
            "buffer" : 0,
            "byteLength" : 17088,
            "byteOffset" : 329840
        },
        {
            "buffer" : 0,
            "byteLength" : 17088,
            "byteOffset" : 346928
        },
        {
            "buffer" : 0,
            "byteLength" : 11392,
            "byteOffset" : 364016
        },
        {
            "buffer" : 0,
            "byteLength" : 4272,
            "byteOffset" : 375408
        }
    ],
    "samplers" : [
        {
            "magFilter" : 9728,
            "minFilter" : 9984
        }
    ],
    "buffers" : [
        {
            "byteLength" : 379680,
            "uri" : "shipL1.bin"
        }
    ]
}
